<svg width="19" height="18" viewBox="0 0 19 18" fill="none" xmlns="http://www.w3.org/2000/svg">
<path d="M11.616 3.00847L1.71212 12.9234C1.66229 12.9734 1.62631 13.0366 1.60918 13.1045L0.511434 17.5152C0.478597 17.648 0.517573 17.7892 0.61437 17.8861C0.68761 17.9594 0.787405 18 0.889485 18C0.920751 18 0.952731 17.9961 0.983855 17.9882L5.38997 16.8892C5.45864 16.8721 5.52103 16.8362 5.57086 16.7863L15.4756 6.8721L11.616 3.00847Z" fill="#989AA1"/>
<path d="M17.929 1.65654L16.8265 0.55293C16.0897 -0.184667 14.8055 -0.183953 14.0695 0.55293L12.7191 1.90479L16.5785 5.76828L17.929 4.41642C18.297 4.04812 18.4998 3.55792 18.4998 3.03655C18.4998 2.51519 18.297 2.02498 17.929 1.65654Z" fill="#989AA1"/>
</svg>