<svg width="12" height="10" viewBox="0 0 12 10" fill="none" xmlns="http://www.w3.org/2000/svg">
<path d="M10.153 0.600591C9.8138 0.610218 9.49142 0.757804 9.25399 1.01217L4.32563 6.18267L2.62564 4.75928C2.49147 4.64668 2.33748 4.56291 2.17246 4.51274C2.00744 4.46257 1.83461 4.447 1.66385 4.4669C1.49309 4.48681 1.32773 4.5418 1.17723 4.62875C1.02673 4.7157 0.894026 4.83289 0.786696 4.97365C0.679365 5.1144 0.599511 5.27595 0.551693 5.44909C0.503875 5.62222 0.489029 5.80354 0.508002 5.98269C0.546321 6.3445 0.720068 6.67553 0.991022 6.90294L3.6064 9.09805C3.85785 9.30851 4.17441 9.41437 4.49556 9.39538C4.81672 9.3764 5.11994 9.23391 5.34727 8.99516L11.1011 2.9586C11.2908 2.76619 11.4207 2.51806 11.4735 2.24681C11.5264 1.97556 11.4997 1.69387 11.3972 1.43878C11.2946 1.18369 11.1209 0.967117 10.8988 0.817519C10.6768 0.667922 10.4168 0.592303 10.153 0.600591Z" fill="#9696BC"/>
</svg>
